<?xml version="1.0" standalone="no"?>
<!DOCTYPE svg PUBLIC "-//W3C//DTD SVG 20010904//EN"
 "http://www.w3.org/TR/2001/REC-SVG-20010904/DTD/svg10.dtd">
<svg version="1.0" xmlns="http://www.w3.org/2000/svg"
 width="416.000000pt" height="144.000000pt" viewBox="0 0 416.000000 144.000000"
 preserveAspectRatio="xMidYMid meet">

<g transform="translate(0.000000,144.000000) scale(0.100000,-0.100000)"
fill="#000000" stroke="none">
<path d="M941 1368 l-63 -10 38 -32 c28 -23 52 -33 92 -37 104 -12 117 -62 39
-146 -142 -156 -569 -329 -732 -299 -69 13 -78 74 -20 136 17 18 24 39 27 78
1 28 1 52 -1 52 -7 0 -68 -53 -128 -112 -73 -71 -103 -126 -103 -190 0 -39 5
-50 30 -72 17 -14 49 -31 70 -37 l40 -12 0 -304 0 -303 1550 0 c1543 0 1550 0
1550 20 0 20 -7 20 -1530 20 l-1530 0 2 282 3 283 65 3 c205 8 507 117 696
250 251 177 328 344 192 413 -51 26 -184 34 -287 17z m227 -58 c82 -50 67
-118 -52 -235 -208 -206 -495 -335 -745 -335 -99 0 -173 20 -196 53 -35 49
-11 128 57 193 26 24 35 30 25 14 -39 -56 -69 -131 -63 -156 15 -59 145 -69
327 -25 205 50 450 182 590 319 56 55 69 74 69 98 0 48 -37 70 -150 87 -14 3
4 5 40 6 49 1 73 -4 98 -19z"/>
<path d="M980 800 c-11 -20 -8 -20 1520 -20 l1530 0 0 -330 0 -330 -70 0 c-63
0 -70 -2 -70 -20 0 -19 7 -20 90 -20 l90 0 0 370 0 370 -1540 0 c-1529 0
-1539 0 -1550 -20z"/>
<path d="M1174 637 c-2 -7 -3 -87 -2 -177 l3 -165 85 0 c81 0 85 1 88 23 2 13
-2 23 -10 24 -19 2 -60 6 -79 7 -14 1 -18 22 -24 151 -7 150 -7 150 -31 150
-14 0 -27 -6 -30 -13z"/>
<path d="M1625 620 c-16 -31 -20 -70 -7 -70 4 0 25 18 46 39 37 38 37 40 18
50 -31 17 -40 14 -57 -19z"/>
<path d="M2020 470 l0 -181 87 3 c77 3 88 5 91 22 5 26 -16 37 -68 34 l-45 -2
-5 149 -5 150 -27 3 -28 3 0 -181z"/>
<path d="M1403 523 c-7 -2 -13 -13 -13 -23 0 -16 7 -18 43 -17 38 2 42 0 45
-23 2 -22 -3 -27 -45 -40 -47 -15 -48 -16 -51 -58 -4 -60 10 -73 72 -70 28 1
58 0 66 -3 12 -3 16 11 18 81 3 95 -1 122 -24 144 -15 15 -83 21 -111 9z m75
-155 c-2 -25 -8 -34 -24 -36 -27 -4 -39 32 -17 53 26 26 45 19 41 -17z"/>
<path d="M1590 410 l0 -120 30 0 30 0 0 120 0 120 -30 0 -30 0 0 -120z"/>
<path d="M1718 518 c-42 -34 -25 -94 35 -124 39 -21 49 -34 35 -51 -13 -16
-33 -16 -58 0 -17 10 -22 9 -30 -3 -16 -26 17 -50 71 -50 40 0 51 4 64 24 9
14 15 39 13 58 -3 28 -10 37 -50 58 -29 15 -48 32 -48 43 0 19 30 23 60 7 14
-7 19 -5 23 10 3 13 -1 24 -13 30 -26 14 -83 12 -102 -2z"/>
<path d="M2241 521 c-8 -5 -11 -16 -7 -26 4 -13 13 -15 36 -10 34 8 60 -7 60
-34 0 -12 -14 -21 -45 -29 -54 -14 -69 -41 -54 -96 l10 -35 75 1 76 1 -4 99
c-3 91 -5 102 -27 119 -25 20 -95 26 -120 10z m89 -140 c0 -32 -11 -51 -30
-51 -27 0 -37 40 -14 57 26 19 44 16 44 -6z"/>
<path d="M2440 411 c0 -118 0 -119 25 -123 13 -3 27 -3 30 0 3 3 5 47 5 98 0
84 2 93 20 99 34 11 40 -3 40 -99 0 -92 1 -94 25 -98 13 -3 27 -3 30 0 3 3 5
45 5 93 0 77 2 90 19 99 38 20 41 13 41 -90 l0 -100 30 0 30 0 0 103 c0 88 -3
106 -18 120 -23 21 -61 22 -89 2 -18 -13 -22 -13 -33 0 -15 18 -53 19 -83 4
-16 -9 -22 -9 -25 0 -2 6 -15 11 -28 11 l-24 0 0 -119z"/>
<path d="M2813 523 c-7 -2 -13 -13 -13 -23 0 -16 7 -18 43 -17 38 2 42 0 45
-23 2 -22 -3 -27 -45 -40 -47 -15 -48 -16 -51 -58 -4 -60 10 -73 72 -70 28 1
58 0 66 -3 12 -3 16 11 18 81 3 95 -1 122 -24 144 -15 15 -83 21 -111 9z m75
-155 c-2 -25 -8 -34 -24 -36 -27 -4 -39 32 -17 53 26 26 45 19 41 -17z"/>
<path d="M3000 410 l0 -120 30 0 29 0 3 93 3 92 35 0 c28 1 36 5 38 23 4 28
-21 38 -55 23 -18 -8 -29 -9 -37 -1 -5 5 -18 10 -28 10 -16 0 -18 -11 -18
-120z"/>
</g>
</svg>
